<svg id="Default" xmlns="http://www.w3.org/2000/svg" viewBox="0 0 951 260"><defs><style>.cls-1{fill:#002d37;}</style></defs><title>iamintelligentcompliance-logo-endorsed-01Colour - Reversed</title><path class="cls-1" d="M842.34,136.14a3.9,3.9,0,0,0-2.85,1.15,4,4,0,0,0,0,5.62,4.12,4.12,0,0,0,5.69,0,4,4,0,0,0,0-5.62A3.89,3.89,0,0,0,842.34,136.14Zm1.42,5.44a2,2,0,0,1-2.85,0,2.23,2.23,0,0,1,0-3,2,2,0,0,1,2.85,0,2.2,2.2,0,0,1,0,3Zm17.18-5.44a3.81,3.81,0,0,0-2.83,1.15,3.94,3.94,0,0,0-1.11,2.83,3.82,3.82,0,0,0,1.11,2.8,4.27,4.27,0,0,0,6.1-.32.28.28,0,0,0-.07-.45l-1-.68c-.14-.1-.27-.08-.41.08a2.21,2.21,0,0,1-1.75.79,1.91,1.91,0,0,1-1.31-.49,1.8,1.8,0,0,1-.64-1.26h5.33c.24,0,.36-.11.36-.34v-.37a3.69,3.69,0,0,0-3.81-3.74Zm-1.83,3.18a1.93,1.93,0,0,1,.66-1.14,1.74,1.74,0,0,1,1.18-.43,1.84,1.84,0,0,1,1.18.41,1.87,1.87,0,0,1,.65,1.16Zm-7.85-17a3.78,3.78,0,0,0-1.17-2.82,4.08,4.08,0,0,0-5.68,0,3.94,3.94,0,0,0,0,5.62,4.11,4.11,0,0,0,5.68,0A3.77,3.77,0,0,0,851.26,122.36Zm-2.58,1.47a2,2,0,0,1-2.86,0,2.23,2.23,0,0,1,0-3,2,2,0,0,1,2.86,0,2.23,2.23,0,0,1,0,3Zm3.48,12.31a3,3,0,0,0-1.39.31,2.36,2.36,0,0,0-1,.82v-.59a.32.32,0,0,0-.31-.32h-1.35a.31.31,0,0,0-.22.09.32.32,0,0,0-.09.23v10.17a.31.31,0,0,0,.31.31h1.38a.29.29,0,0,0,.21-.09.28.28,0,0,0,.1-.22V143a2.1,2.1,0,0,0,1,.78,3.37,3.37,0,0,0,1.33.28,3.57,3.57,0,0,0,2.64-1.11,3.94,3.94,0,0,0,1.08-2.86,3.88,3.88,0,0,0-1.08-2.84A3.55,3.55,0,0,0,852.16,136.14Zm1.1,5.45a1.85,1.85,0,0,1-1.42.61,1.9,1.9,0,0,1-1.44-.61,2.13,2.13,0,0,1-.58-1.5,2.11,2.11,0,0,1,.58-1.49,1.93,1.93,0,0,1,1.44-.6,1.87,1.87,0,0,1,1.42.6,2.07,2.07,0,0,1,.58,1.49A2.09,2.09,0,0,1,853.26,141.59Zm-69-15.51h1.37a.33.33,0,0,0,.22-.09.24.24,0,0,0,.1-.21v-3.36c0-1.2.52-1.8,1.57-1.8h.37a.45.45,0,0,0,.25-.09.35.35,0,0,0,.12-.3V118.9q0-.39-.36-.39h-.21a2,2,0,0,0-1.83,1.1v-.71a.28.28,0,0,0-.09-.2.33.33,0,0,0-.22-.09h-1.29a.32.32,0,0,0-.31.32v6.84a.3.3,0,0,0,.1.22A.29.29,0,0,0,784.21,126.08Zm73.67,3.56a2.61,2.61,0,0,0,1.75-.59,3.43,3.43,0,0,0,1.06-1.61l2.69-8.35c.11-.32,0-.48-.27-.48h-1.48a.39.39,0,0,0-.4.32l-1.53,5.33-1.63-5.33c-.06-.21-.18-.32-.34-.32h-1.6c-.3,0-.41.16-.32.48l2.26,6.68a.39.39,0,0,0,.39.31h.69l-.37,1a1,1,0,0,1-1,.79,1.57,1.57,0,0,1-.94-.35.4.4,0,0,0-.64.07l-.48.67a.39.39,0,0,0,0,.56A3,3,0,0,0,857.88,129.64Zm18.91-3.34a2.71,2.71,0,0,0,2.33-1.11v.59a.26.26,0,0,0,.09.21.29.29,0,0,0,.22.09h1.36A.32.32,0,0,0,881,126a.3.3,0,0,0,.1-.22v-6.84a.29.29,0,0,0-.1-.23.32.32,0,0,0-.23-.09h-1.36a.29.29,0,0,0-.22.09.28.28,0,0,0-.09.2v3.91a1.84,1.84,0,0,1-.46,1.28,1.61,1.61,0,0,1-1.26.5,1.55,1.55,0,0,1-1.25-.49,1.91,1.91,0,0,1-.43-1.32V118.9a.26.26,0,0,0-.1-.2.33.33,0,0,0-.22-.09h-1.35a.35.35,0,0,0-.23.09.3.3,0,0,0-.1.2v4.22a3.21,3.21,0,0,0,.83,2.3A3,3,0,0,0,876.79,126.3ZM885,136.36h-1.47a.4.4,0,0,0-.41.32L881.63,142,880,136.68c-.06-.21-.18-.32-.34-.32h-1.6c-.3,0-.41.16-.32.48l2.26,6.68a.4.4,0,0,0,.39.31h.7l-.38,1a1,1,0,0,1-1,.79,1.6,1.6,0,0,1-1-.35.4.4,0,0,0-.64.07l-.48.67a.39.39,0,0,0,0,.56,3,3,0,0,0,2.15.77,2.64,2.64,0,0,0,1.76-.59,3.49,3.49,0,0,0,1-1.61l2.7-8.35C885.42,136.52,885.33,136.36,885,136.36Zm-13.9-11.2a4,4,0,0,0,0-5.62,4.09,4.09,0,0,0-5.69,0,4,4,0,0,0,0,5.62,4.12,4.12,0,0,0,5.69,0Zm-4.84-2.82a2.1,2.1,0,0,1,.57-1.49,1.89,1.89,0,0,1,1.43-.6,1.87,1.87,0,0,1,1.42.6,2.2,2.2,0,0,1,0,3,1.88,1.88,0,0,1-1.42.61,1.9,1.9,0,0,1-1.43-.61A2.09,2.09,0,0,1,866.3,122.34ZM876.59,142c-.13-.2-.34-.22-.6-.06a1.36,1.36,0,0,1-.72.23.91.91,0,0,1-.59-.23.92.92,0,0,1-.26-.73V138h2.17a.32.32,0,0,0,.23-.1.34.34,0,0,0,.1-.22v-1a.33.33,0,0,0-.1-.23.35.35,0,0,0-.23-.09h-2.17v-2.08a.32.32,0,0,0-.09-.23.32.32,0,0,0-.22-.1h-1.36a.35.35,0,0,0-.24.1.32.32,0,0,0-.09.23v2.08h-1a.31.31,0,0,0-.22.09.32.32,0,0,0-.09.23v1a.33.33,0,0,0,.09.22.28.28,0,0,0,.22.1h1v3.6a2.14,2.14,0,0,0,.72,1.76,2.66,2.66,0,0,0,1.76.59,2.84,2.84,0,0,0,2.11-.74.37.37,0,0,0,0-.51Zm-6.51-5.71h-.22a2,2,0,0,0-1.83,1.1v-.71a.28.28,0,0,0-.09-.2.29.29,0,0,0-.22-.09h-1.28a.31.31,0,0,0-.22.09.32.32,0,0,0-.09.23v6.84a.33.33,0,0,0,.09.22.31.31,0,0,0,.22.09h1.36a.35.35,0,0,0,.23-.09.27.27,0,0,0,.1-.21v-3.36q0-1.8,1.56-1.8h.37a.4.4,0,0,0,.25-.09.33.33,0,0,0,.13-.3v-1.33Q870.44,136.26,870.08,136.26Zm-31.63-10.62a2.66,2.66,0,0,0,1.76.59,2.84,2.84,0,0,0,2.11-.74.36.36,0,0,0,0-.51l-.47-.76q-.2-.3-.6-.06a1.36,1.36,0,0,1-.72.23.87.87,0,0,1-.58-.23.89.89,0,0,1-.27-.73v-3.15h2.17a.32.32,0,0,0,.23-.1.34.34,0,0,0,.1-.22v-1a.33.33,0,0,0-.1-.23.35.35,0,0,0-.23-.09h-2.17v-2.08a.32.32,0,0,0-.09-.23.32.32,0,0,0-.22-.1h-1.36a.31.31,0,0,0-.23.1.29.29,0,0,0-.1.23v2.08h-1a.31.31,0,0,0-.22.09.32.32,0,0,0-.09.23v1a.33.33,0,0,0,.09.22.28.28,0,0,0,.22.1h1v3.6A2.14,2.14,0,0,0,838.45,125.64Zm-47.82,10.72h-1.47a.41.41,0,0,0-.41.32L787.22,142l-1.63-5.33c-.06-.21-.17-.32-.34-.32h-1.6c-.3,0-.4.16-.32.48l2.26,6.68a.4.4,0,0,0,.39.31h.7l-.38,1a1,1,0,0,1-1,.79,1.6,1.6,0,0,1-.95-.35.39.39,0,0,0-.63.07l-.48.67a.39.39,0,0,0,0,.56,3.05,3.05,0,0,0,2.16.77,2.63,2.63,0,0,0,1.75-.59,3.49,3.49,0,0,0,1.05-1.61l2.7-8.35C791,136.52,790.92,136.36,790.63,136.36Zm37.26-.22a3,3,0,0,0-1.39.31,2.46,2.46,0,0,0-1,.82v-.59a.32.32,0,0,0-.09-.23.29.29,0,0,0-.22-.09h-1.34a.29.29,0,0,0-.22.09.32.32,0,0,0-.09.23v10.17a.31.31,0,0,0,.09.22.29.29,0,0,0,.22.09h1.38a.29.29,0,0,0,.21-.09.32.32,0,0,0,.1-.22V143a2.1,2.1,0,0,0,1,.78,3.34,3.34,0,0,0,1.33.28,3.54,3.54,0,0,0,2.63-1.11,3.91,3.91,0,0,0,1.09-2.86,3.84,3.84,0,0,0-1.09-2.84A3.53,3.53,0,0,0,827.89,136.14Zm1.1,5.45a1.87,1.87,0,0,1-1.43.61,1.9,1.9,0,0,1-1.43-.61,2.09,2.09,0,0,1-.58-1.5,2.07,2.07,0,0,1,.58-1.49,1.93,1.93,0,0,1,1.43-.6,1.89,1.89,0,0,1,1.43.6,2.1,2.1,0,0,1,.57,1.49A2.13,2.13,0,0,1,829,141.59Zm-31.84-19.23a3.78,3.78,0,0,0-1.17-2.82,4.08,4.08,0,0,0-5.68,0,4,4,0,0,0,0,5.62,4.11,4.11,0,0,0,5.68,0A3.77,3.77,0,0,0,797.15,122.36Zm-2.58,1.47a2,2,0,0,1-2.86,0,2.23,2.23,0,0,1,0-3,2,2,0,0,1,2.86,0,2.23,2.23,0,0,1,0,3Zm-15.88-5.44a3,3,0,0,0-1.39.31,2.26,2.26,0,0,0-.92.79v-3.95a.28.28,0,0,0-.1-.22.31.31,0,0,0-.22-.09h-1.35a.32.32,0,0,0-.23.09.31.31,0,0,0-.09.22v10.23a.33.33,0,0,0,.09.22.32.32,0,0,0,.23.09h1.35a.31.31,0,0,0,.31-.31v-.61a2.57,2.57,0,0,0,2.29,1.14,3.59,3.59,0,0,0,2.64-1.11,3.9,3.9,0,0,0,1.1-2.86,3.85,3.85,0,0,0-1.1-2.84A3.58,3.58,0,0,0,778.69,118.39Zm1.11,5.45a2,2,0,0,1-2.86,0,2.13,2.13,0,0,1-.57-1.5,2.1,2.1,0,0,1,.57-1.49,2,2,0,0,1,2.86,0,2.07,2.07,0,0,1,.58,1.49A2.09,2.09,0,0,1,779.8,123.84Zm-1.11,12.3a3,3,0,0,0-1.39.31,2.26,2.26,0,0,0-.92.79v-4a.28.28,0,0,0-.1-.22.31.31,0,0,0-.22-.09h-1.35a.32.32,0,0,0-.23.09.31.31,0,0,0-.09.22v10.23a.33.33,0,0,0,.09.22.32.32,0,0,0,.23.09h1.35a.31.31,0,0,0,.31-.31v-.61a2.57,2.57,0,0,0,2.29,1.14,3.59,3.59,0,0,0,2.64-1.11,3.91,3.91,0,0,0,1.1-2.86,3.85,3.85,0,0,0-1.1-2.84A3.58,3.58,0,0,0,778.69,136.14Zm1.11,5.45a2,2,0,0,1-2.86,0,2.13,2.13,0,0,1-.57-1.5,2.1,2.1,0,0,1,.57-1.49,2,2,0,0,1,2.86,0,2.07,2.07,0,0,1,.58,1.49A2.09,2.09,0,0,1,779.8,141.59Zm17.7-5.23h-1.35a.34.34,0,0,0-.24.09.32.32,0,0,0-.09.23v6.82a.33.33,0,0,0,.09.23.35.35,0,0,0,.24.1h1.35a.33.33,0,0,0,.23-.1.33.33,0,0,0,.09-.23v-6.82a.31.31,0,0,0-.32-.32Zm9.53,0h-1.37a.32.32,0,0,0-.31.32v.59a2.11,2.11,0,0,0-.9-.81,2.91,2.91,0,0,0-1.37-.32,3.63,3.63,0,0,0-2.65,1.09,3.83,3.83,0,0,0-1.11,2.85,3.88,3.88,0,0,0,1.11,2.86,3.6,3.6,0,0,0,2.63,1.11,3.12,3.12,0,0,0,1.39-.31,2.08,2.08,0,0,0,.9-.83v.61a.3.3,0,0,0,.1.22.29.29,0,0,0,.21.09H807a.29.29,0,0,0,.21-.09.3.3,0,0,0,.1-.22v-6.84a.32.32,0,0,0-.31-.32Zm-2.25,5.23a1.87,1.87,0,0,1-1.43.61,1.9,1.9,0,0,1-1.43-.61,2.09,2.09,0,0,1-.58-1.5,2.07,2.07,0,0,1,.58-1.49,1.93,1.93,0,0,1,1.43-.6,1.89,1.89,0,0,1,1.43.6,2.1,2.1,0,0,1,.57,1.49A2.13,2.13,0,0,1,804.78,141.59ZM825,126a.24.24,0,0,0,.1-.21v-4.15a3.25,3.25,0,0,0-.87-2.33,3.12,3.12,0,0,0-2.33-.91,2.84,2.84,0,0,0-2.48,1.1v-4a.28.28,0,0,0-.11-.21.35.35,0,0,0-.22-.08h-1.36a.29.29,0,0,0-.22.09.31.31,0,0,0-.09.22v10.23a.33.33,0,0,0,.09.22.29.29,0,0,0,.22.09H819a.31.31,0,0,0,.22-.09.25.25,0,0,0,.11-.21v-3.61a2,2,0,0,1,.51-1.4,1.78,1.78,0,0,1,1.36-.54,1.74,1.74,0,0,1,1.33.52,2,2,0,0,1,.48,1.42v3.61a.25.25,0,0,0,.11.21.31.31,0,0,0,.22.09h1.35A.31.31,0,0,0,825,126Zm-10.54,2.68a3.24,3.24,0,0,0,1.08-2.55v-7.19a.32.32,0,0,0-.32-.31h-1.35a.27.27,0,0,0-.22.1.29.29,0,0,0-.09.21v.61a2.17,2.17,0,0,0-.93-.83,3.17,3.17,0,0,0-1.41-.32,3.57,3.57,0,0,0-2.61,1.08,3.79,3.79,0,0,0-1.08,2.81,3.66,3.66,0,0,0,3.76,3.86,3.06,3.06,0,0,0,1.37-.3,2.22,2.22,0,0,0,.9-.77v1a1.83,1.83,0,0,1-.51,1.36,2.07,2.07,0,0,1-1.48.5,2.14,2.14,0,0,1-1.27-.34,1.43,1.43,0,0,1-.6-.8c-.06-.13-.18-.17-.36-.14l-1.44.38c-.15,0-.2.14-.16.31A2.75,2.75,0,0,0,809,129a4.76,4.76,0,0,0,2.51.62A4.23,4.23,0,0,0,814.41,128.67Zm-1.49-4.9a1.92,1.92,0,0,1-1.43.59,1.9,1.9,0,0,1-1.42-.59,2,2,0,0,1-.58-1.47,2,2,0,0,1,.58-1.47,1.87,1.87,0,0,1,1.42-.6,1.89,1.89,0,0,1,1.43.6,2.05,2.05,0,0,1,.57,1.47A2,2,0,0,1,812.92,123.77Zm-11.29,2.53a2.7,2.7,0,0,0,2.33-1.11v.59a.26.26,0,0,0,.09.21.31.31,0,0,0,.22.09h1.36a.34.34,0,0,0,.24-.09.33.33,0,0,0,.09-.22v-6.84a.32.32,0,0,0-.09-.23.34.34,0,0,0-.24-.09h-1.36a.31.31,0,0,0-.22.09.28.28,0,0,0-.09.2v3.91a1.8,1.8,0,0,1-.46,1.28,1.59,1.59,0,0,1-1.26.5,1.55,1.55,0,0,1-1.25-.49,2,2,0,0,1-.43-1.32V118.9a.26.26,0,0,0-.1-.2.31.31,0,0,0-.22-.09h-1.35a.31.31,0,0,0-.22.09.27.27,0,0,0-.11.2v4.22a3.21,3.21,0,0,0,.83,2.3A3,3,0,0,0,801.63,126.3Zm-4.8,6.57a1.19,1.19,0,0,0-.89.37,1.24,1.24,0,0,0,0,1.77,1.19,1.19,0,0,0,.89.37,1.16,1.16,0,0,0,.87-.37,1.24,1.24,0,0,0,0-1.77A1.16,1.16,0,0,0,796.83,132.87Zm40.22,3.39h-.22a2,2,0,0,0-1.83,1.1v-.71a.28.28,0,0,0-.09-.2.29.29,0,0,0-.22-.09h-1.28a.31.31,0,0,0-.22.09.32.32,0,0,0-.09.23v6.84a.33.33,0,0,0,.09.22.31.31,0,0,0,.22.09h1.36a.35.35,0,0,0,.23-.09.27.27,0,0,0,.1-.21v-3.36q0-1.8,1.56-1.8H837a.4.4,0,0,0,.24-.09.33.33,0,0,0,.13-.3v-1.33Q837.41,136.26,837.05,136.26Zm-5.35-12q-.19-.3-.6-.06a1.35,1.35,0,0,1-.71.23.88.88,0,0,1-.59-.23.89.89,0,0,1-.27-.73v-3.15h2.17a.3.3,0,0,0,.23-.1.3.3,0,0,0,.1-.22v-1a.29.29,0,0,0-.1-.23.33.33,0,0,0-.23-.09h-2.17v-2.08a.32.32,0,0,0-.09-.23.3.3,0,0,0-.22-.1h-1.36a.33.33,0,0,0-.23.1.29.29,0,0,0-.1.23v2.08h-1a.33.33,0,0,0-.22.09.32.32,0,0,0-.09.23v1a.33.33,0,0,0,.09.22.3.3,0,0,0,.22.1h1v3.6a2.14,2.14,0,0,0,.72,1.76,2.66,2.66,0,0,0,1.76.59,2.83,2.83,0,0,0,2.11-.74.36.36,0,0,0,0-.51Zm-13.13,11.92a3.14,3.14,0,0,0-2.65,1.32,2.29,2.29,0,0,0-.94-1,2.82,2.82,0,0,0-1.44-.36,3,3,0,0,0-1.36.31,2.57,2.57,0,0,0-1,.79v-.59a.26.26,0,0,0-.1-.2.33.33,0,0,0-.22-.09h-1.37a.32.32,0,0,0-.31.32v6.84a.3.3,0,0,0,.1.22.29.29,0,0,0,.21.09h1.37a.33.33,0,0,0,.22-.09.24.24,0,0,0,.1-.21v-3.75a1.87,1.87,0,0,1,.45-1.28,1.57,1.57,0,0,1,1.24-.52,1.45,1.45,0,0,1,1.19.51,2,2,0,0,1,.41,1.29v3.75a.24.24,0,0,0,.1.21.33.33,0,0,0,.22.09h1.35a.33.33,0,0,0,.23-.09.27.27,0,0,0,.1-.21v-3.75a1.9,1.9,0,0,1,.44-1.29,1.54,1.54,0,0,1,1.23-.51,1.45,1.45,0,0,1,1.19.51,2,2,0,0,1,.41,1.29v3.75a.24.24,0,0,0,.1.21.33.33,0,0,0,.22.09h1.35a.33.33,0,0,0,.23-.09.27.27,0,0,0,.1-.21V139.3a3.29,3.29,0,0,0-.82-2.24A3,3,0,0,0,818.57,136.14Zm-200.16-33h-5a1.25,1.25,0,0,0-1.25,1.25V142.6a1.25,1.25,0,0,0,1.25,1.25h5a1.25,1.25,0,0,0,1.25-1.25V104.43A1.25,1.25,0,0,0,618.41,103.18Zm105.67,31.9a1.24,1.24,0,0,0-1.64.17,7.3,7.3,0,0,1-5.45,2.47,7.76,7.76,0,0,1,0-15.5,7.29,7.29,0,0,1,5.43,2.45,1.24,1.24,0,0,0,1.63.16l3.83-2.72a1.24,1.24,0,0,0,.22-1.83,14.75,14.75,0,1,0,0,19.35,1.25,1.25,0,0,0-.23-1.83ZM129.64,65a65,65,0,1,0,65,65A65,65,0,0,0,129.64,65ZM92.39,142.6a1.25,1.25,0,0,1-1.25,1.25h-5a1.25,1.25,0,0,1-1.25-1.25V117.35a1.25,1.25,0,0,1,1.25-1.25h5a1.25,1.25,0,0,1,1.25,1.25ZM88.7,112.49a4.66,4.66,0,1,1,4.66-4.66A4.66,4.66,0,0,1,88.7,112.49Zm37.36,30.11a1.25,1.25,0,0,1-1.25,1.25h-5a1.25,1.25,0,0,1-1.25-1.25v-1.91a11.62,11.62,0,0,1-8.83,4c-7.4,0-13.64-6.6-13.64-14.75s6.24-14.75,13.64-14.75a11.62,11.62,0,0,1,8.83,4v-1.9a1.25,1.25,0,0,1,1.25-1.25h5a1.25,1.25,0,0,1,1.25,1.25Zm40-55.13a3,3,0,1,1,.31,4.24A3,3,0,0,1,166.06,87.47Zm-10,15.58a3,3,0,1,1,2.73,4.24,2.94,2.94,0,0,1-1.25-.27A3,3,0,0,1,156.09,103.05Zm4,55.46a2.91,2.91,0,0,1-1.25.27,3,3,0,1,1,1.25-.27Zm10.25,14.38a3,3,0,0,1-4.23-.3,3,3,0,1,1,4.23.3Zm6.87-30.29a1.25,1.25,0,0,1-1.25,1.25h-5a1.25,1.25,0,0,1-1.25-1.25V129.54c-.16-5.51-2.82-7.32-6.26-7.32-2.61,0-4.61,1.44-5.53,4.54a11.52,11.52,0,0,0-.25,2.78V142.6a1.25,1.25,0,0,1-1.25,1.25h-5a1.25,1.25,0,0,1-1.25-1.25V129.54c-.15-5.51-2.81-7.32-6.26-7.32-2.57,0-4.65,1.53-5.6,4.54a11,11,0,0,0-.26,2.78V142.6a1.25,1.25,0,0,1-1.25,1.25h-5a1.25,1.25,0,0,1-1.25-1.25V117.35a1.25,1.25,0,0,1,1.25-1.25h5a1.25,1.25,0,0,1,1.25,1.25v1.7a11.78,11.78,0,0,1,8.93-3.66,10.58,10.58,0,0,1,8.69,5c2.11-3.65,5.87-5,10.84-5,5.22,0,10.7,4.88,10.7,11.34ZM594,115.22a11.64,11.64,0,0,0-8.84,4v-1.9a1.25,1.25,0,0,0-1.25-1.25h-5a1.25,1.25,0,0,0-1.25,1.25v37.5a1.25,1.25,0,0,0,1.25,1.25h5a1.25,1.25,0,0,0,1.25-1.25V140.69a11.64,11.64,0,0,0,8.84,4c7.39,0,13.63-6.6,13.63-14.75S601.42,115.22,594,115.22Zm-1.37,22.5a7.76,7.76,0,1,1,7.45-7.75A7.6,7.6,0,0,1,592.66,137.72ZM183.35,179.64a3,3,0,1,0,.9,4.14A3,3,0,0,0,183.35,179.64ZM665,116.1h-5a1.25,1.25,0,0,0-1.25,1.25v1.9a11.64,11.64,0,0,0-8.84-4c-7.39,0-13.63,6.61-13.63,14.75s6.24,14.75,13.63,14.75a11.64,11.64,0,0,0,8.84-4v1.91a1.25,1.25,0,0,0,1.25,1.25h5a1.25,1.25,0,0,0,1.25-1.25V117.35A1.25,1.25,0,0,0,665,116.1Zm-13.72,21.62a7.76,7.76,0,1,1,7.45-7.75A7.6,7.6,0,0,1,651.23,137.72Zm-166.17-2.64a1.24,1.24,0,0,0-1.64.17,7.3,7.3,0,0,1-5.46,2.47,7.76,7.76,0,0,1,0-15.5,7.29,7.29,0,0,1,5.44,2.45,1.24,1.24,0,0,0,1.63.16l3.82-2.72a1.25,1.25,0,0,0,.23-1.83,14.75,14.75,0,1,0,0,19.35,1.25,1.25,0,0,0-.23-1.83Zm22.22-19.86A14.75,14.75,0,1,0,522,130,14.76,14.76,0,0,0,507.28,115.22Zm0,22.5a7.76,7.76,0,1,1,7.46-7.75A7.61,7.61,0,0,1,507.28,137.72Zm55.21-22.33c-5,0-8.73,1.32-10.84,5a10.56,10.56,0,0,0-8.69-5,11.8,11.8,0,0,0-8.93,3.66v-1.7a1.25,1.25,0,0,0-1.25-1.25h-5a1.25,1.25,0,0,0-1.25,1.25V142.6a1.25,1.25,0,0,0,1.25,1.25h5A1.25,1.25,0,0,0,534,142.6V129.54a11,11,0,0,1,.26-2.78c1-3,3-4.54,5.6-4.54,3.45,0,6.11,1.81,6.26,7.32V142.6a1.25,1.25,0,0,0,1.25,1.25h5a1.25,1.25,0,0,0,1.25-1.25V129.54a11.52,11.52,0,0,1,.25-2.78c.92-3.1,2.92-4.54,5.53-4.54,3.45,0,6.1,1.81,6.26,7.32V142.6a1.25,1.25,0,0,0,1.25,1.25h5a1.25,1.25,0,0,0,1.25-1.25V126.73C573.19,120.27,567.72,115.41,562.49,115.39Zm-451.4,6.83a7.76,7.76,0,1,0,7.46,7.75A7.61,7.61,0,0,0,111.09,122.22Zm516.95-19a4.66,4.66,0,1,0,4.66,4.66A4.66,4.66,0,0,0,628,103.17Zm-359.2,2.26a.08.08,0,0,1,0,0l0,0h0a3,3,0,1,0,5.46-2.5.08.08,0,0,0,0,0v0a3,3,0,0,0-5.46,2.5ZM630.48,116.1h-5a1.25,1.25,0,0,0-1.25,1.25V142.6a1.25,1.25,0,0,0,1.25,1.25h5a1.25,1.25,0,0,0,1.25-1.25V117.35A1.25,1.25,0,0,0,630.48,116.1ZM181.66,80.88a3,3,0,1,0-2.53-1.38A3,3,0,0,0,181.66,80.88ZM687,115.39a12.94,12.94,0,0,0-2,.15h0l-.19,0h0a11.48,11.48,0,0,0-5.38,2.33l-.06,0h0a11.43,11.43,0,0,0-1.2,1.11v-1.7A1.25,1.25,0,0,0,677,116.1h-5a1.25,1.25,0,0,0-1.25,1.25V142.6a1.25,1.25,0,0,0,1.25,1.25h5a1.25,1.25,0,0,0,1.25-1.25V129.54a11.44,11.44,0,0,1,.25-2.78c.95-3,3-4.53,5.58-4.54h.31c3.27.13,5.75,2,5.9,7.31V142.6a1.25,1.25,0,0,0,1.25,1.25h5a1.25,1.25,0,0,0,1.25-1.25V126.73C697.74,120.27,692.26,115.41,687,115.39Zm-455.26-42a3,3,0,0,0,.84.12,3,3,0,1,0-.84-.12ZM215.16,71a3,3,0,1,0-3-3A3,3,0,0,0,215.16,71Zm31.9,9.34a3,3,0,1,0,3.24-5h0a3,3,0,1,0-3.24,5Zm15,12a3,3,0,0,0,2.27-5h0a3,3,0,1,0-2.27,5Zm-46.1,50.26V117.35a1.25,1.25,0,0,0-1.25-1.25h-5a1.25,1.25,0,0,0-1.25,1.25V142.6a1.25,1.25,0,0,0,1.25,1.25h5A1.25,1.25,0,0,0,215.93,142.6Zm109.63-39.42h-5a1.25,1.25,0,0,0-1.25,1.25V142.6a1.25,1.25,0,0,0,1.25,1.25h5a1.24,1.24,0,0,0,1.24-1.25V104.43A1.24,1.24,0,0,0,325.56,103.18Zm12,12.92h-5a1.25,1.25,0,0,0-1.25,1.25V142.6a1.25,1.25,0,0,0,1.25,1.25h5a1.25,1.25,0,0,0,1.25-1.25V117.35A1.25,1.25,0,0,0,337.54,116.1Zm-24-12.92h-5a1.25,1.25,0,0,0-1.25,1.25V142.6a1.25,1.25,0,0,0,1.25,1.25h5a1.24,1.24,0,0,0,1.24-1.25V104.43A1.24,1.24,0,0,0,313.56,103.18ZM272.85,153a3,3,0,0,0-2.49,5.46,2.94,2.94,0,0,0,1.25.27,3,3,0,0,0,1.24-5.73Zm186.46-16.2a1.25,1.25,0,0,0-1.67-.67c-2.7,1.21-4.37,1.25-5.06.83s-1.14-2.18-1.13-2.95v-.29h0V122.35h8a1.25,1.25,0,0,0,1.25-1.25v-3.75a1.25,1.25,0,0,0-1.25-1.25h-8v-7.62a1.25,1.25,0,0,0-1.25-1.25h-5a1.25,1.25,0,0,0-1.25,1.25v7.62h-3.73a1.25,1.25,0,0,0-1.25,1.25v3.75a1.25,1.25,0,0,0,1.25,1.25H444v11.36h0v.23c0,3,1.17,7.23,4.69,9.41a9.43,9.43,0,0,0,5,1.37,17.41,17.41,0,0,0,6.87-1.66,1.25,1.25,0,0,0,.64-1.61Zm-171-21.57a14.75,14.75,0,0,0,.69,29.48c4.82,0,9.42-1.91,12.11-5.48a1.25,1.25,0,0,0-.3-1.77l-3.45-2.41a1.23,1.23,0,0,0-1.71.29c-1.37,1.84-4.24,2.82-6.65,2.82-3.45,0-6.93-3.41-6.93-6.21H302a1.26,1.26,0,0,0,1.25-1.19c0-.26,0-.53,0-.8C303.24,121,296.76,114.85,288.3,115.24ZM282.41,127c0-2.84,3.49-5.74,6.58-5.74s6.58,2.9,6.58,5.74Zm88.94-10.86h-5a1.25,1.25,0,0,0-1.25,1.25v2.71a11.41,11.41,0,0,0-9.32-4.84c-7.18,0-13.24,6.41-13.24,14.32s6.06,14.32,13.24,14.32A11.41,11.41,0,0,0,365.1,139v3.45a7.06,7.06,0,0,1-13,3.76,1.23,1.23,0,0,0-1-.56h-5.53a1.25,1.25,0,0,0-1.18,1.67A14.56,14.56,0,0,0,372.59,143s0-.08,0-.12v-25.5A1.25,1.25,0,0,0,371.35,116.1Zm-14,20.68a7.25,7.25,0,1,1,7-7.24A7.14,7.14,0,0,1,357.31,136.78ZM335.1,103.17a4.66,4.66,0,1,0,4.66,4.66A4.66,4.66,0,0,0,335.1,103.17Zm410.51,12.07a14.75,14.75,0,0,0,.7,29.48c4.81,0,9.41-1.91,12.1-5.48a1.24,1.24,0,0,0-.29-1.77l-3.45-2.41a1.24,1.24,0,0,0-1.72.29c-1.36,1.84-4.24,2.82-6.64,2.82-3.46,0-6.94-3.41-6.94-6.21h19.91a1.25,1.25,0,0,0,1.25-1.19c0-.26,0-.53,0-.8C760.56,121,754.07,114.85,745.61,115.24ZM739.73,127c0-2.84,3.49-5.74,6.58-5.74s6.57,2.9,6.57,5.74Zm-314-11.57a12.94,12.94,0,0,0-2,.15h0l-.19,0h0a11.52,11.52,0,0,0-5.38,2.33l-.06,0h0a11.43,11.43,0,0,0-1.2,1.11v-1.7a1.25,1.25,0,0,0-1.25-1.25h-5a1.25,1.25,0,0,0-1.25,1.25V142.6a1.25,1.25,0,0,0,1.25,1.25h5a1.25,1.25,0,0,0,1.25-1.25V129.54a11,11,0,0,1,.26-2.78c.94-3,3-4.53,5.57-4.54h.32c3.26.13,5.74,2,5.89,7.31V142.6a1.25,1.25,0,0,0,1.25,1.25h5a1.25,1.25,0,0,0,1.25-1.25V126.73C436.47,120.27,431,115.41,425.77,115.39ZM198.63,186.6a3,3,0,1,0,2,3.73A3,3,0,0,0,198.63,186.6Zm13.61-74.11a4.66,4.66,0,1,0-4.66-4.66A4.66,4.66,0,0,0,212.24,112.49Zm178.48,2.75a14.75,14.75,0,0,0,.69,29.48c4.82,0,9.42-1.91,12.11-5.48a1.25,1.25,0,0,0-.3-1.77l-3.45-2.41a1.23,1.23,0,0,0-1.71.29c-1.36,1.84-4.24,2.82-6.65,2.82-3.45,0-6.93-3.41-6.93-6.21h19.91a1.26,1.26,0,0,0,1.25-1.19c0-.26,0-.53,0-.8C405.66,121,399.18,114.85,390.72,115.24ZM384.83,127c0-2.84,3.5-5.74,6.58-5.74S398,124.12,398,127Zm-125,41.67h0a3,3,0,1,0,4.23-.31A3,3,0,0,0,259.82,168.63ZM197.7,73.54a2.79,2.79,0,0,0,.85-.13,3,3,0,1,0-.85.13ZM215.24,189a3,3,0,1,0,3,3A3,3,0,0,0,215.24,189Zm31.89-9.38a3,3,0,1,0,4.15.9A3,3,0,0,0,247.13,179.62Zm-15.28,7a3,3,0,0,0,.85,5.88,2.79,2.79,0,0,0,.85-.13,3,3,0,1,0-1.7-5.75Zm32.86-41.88a17.37,17.37,0,0,0,6.87-1.66,1.23,1.23,0,0,0,.64-1.61l-1.87-4.64a1.26,1.26,0,0,0-1.67-.67c-2.71,1.21-4.37,1.25-5.06.83s-1.15-2.18-1.14-2.95v-.29h0V122.35h8a1.25,1.25,0,0,0,1.25-1.25v-3.75a1.25,1.25,0,0,0-1.25-1.25h-8v-7.62a1.25,1.25,0,0,0-1.25-1.25h-5a1.25,1.25,0,0,0-1.25,1.25v7.62h-3.73a1.25,1.25,0,0,0-1.25,1.25v3.75a1.25,1.25,0,0,0,1.25,1.25H255v11.36h0v.23c0,3,1.17,7.23,4.7,9.41A9.42,9.42,0,0,0,264.71,144.72ZM247.5,142.6V126.73c0-6.46-5.48-11.32-10.7-11.34a12.81,12.81,0,0,0-2,.15h0l-.2,0h0a11.52,11.52,0,0,0-5.38,2.33l-.06,0h0a12.52,12.52,0,0,0-1.2,1.11v-1.7a1.25,1.25,0,0,0-1.25-1.25h-5a1.25,1.25,0,0,0-1.25,1.25V142.6a1.25,1.25,0,0,0,1.25,1.25h5A1.25,1.25,0,0,0,228,142.6V129.54a11,11,0,0,1,.26-2.78c.94-3,3-4.53,5.58-4.54h.31c3.26.13,5.74,2,5.89,7.31V142.6a1.25,1.25,0,0,0,1.25,1.25h5A1.25,1.25,0,0,0,247.5,142.6Z"/></svg>