<svg id="Default" xmlns="http://www.w3.org/2000/svg" viewBox="0 0 826 260"><defs><style>.cls-1{fill:#002d37;}</style></defs><title>iamintelligentcompliance-logoColour - Reversed</title><path class="cls-1" d="M231.85,186.6a3,3,0,0,0,.85,5.88,2.79,2.79,0,0,0,.85-.13,3,3,0,1,0-1.7-5.75Zm-33.22,0a3,3,0,1,0,2,3.73A3,3,0,0,0,198.63,186.6Zm16.61,2.4a3,3,0,1,0,3,3A3,3,0,0,0,215.24,189ZM197.7,73.54a2.79,2.79,0,0,0,.85-.13,3,3,0,1,0-.85.13ZM262,92.34a3,3,0,0,0,2.27-5h0a3,3,0,1,0-2.27,5Zm-14.9,87.28a3,3,0,1,0,4.15.9A3,3,0,0,0,247.13,179.62Zm-.07-99.28a3,3,0,1,0,3.24-5h0a3,3,0,1,0-3.24,5Zm21.78,25.09a.08.08,0,0,1,0,0l0,0h0a3,3,0,1,0,5.46-2.5.08.08,0,0,0,0,0v0a3,3,0,0,0-5.46,2.5Zm-85.49,74.21a3,3,0,1,0,.9,4.14A3,3,0,0,0,183.35,179.64ZM231.78,73.39a3,3,0,0,0,.84.12,3,3,0,1,0-.84-.12ZM215.16,71a3,3,0,1,0-3-3A3,3,0,0,0,215.16,71Zm-33.5,9.88a3,3,0,1,0-2.53-1.38A3,3,0,0,0,181.66,80.88Zm82.39,87.44a3,3,0,0,0-4.23.31h0a3,3,0,1,0,4.23-.31Zm8.8-15.31a3,3,0,0,0-2.49,5.46,2.94,2.94,0,0,0,1.25.27,3,3,0,0,0,1.24-5.73Zm15.45-37.77a14.75,14.75,0,0,0,.69,29.48c4.82,0,9.42-1.91,12.11-5.48a1.25,1.25,0,0,0-.3-1.77l-3.45-2.41a1.23,1.23,0,0,0-1.71.29c-1.37,1.84-4.24,2.82-6.65,2.82-3.45,0-6.93-3.41-6.93-6.21H302a1.26,1.26,0,0,0,1.25-1.19c0-.26,0-.53,0-.8C303.24,121,296.76,114.85,288.3,115.24ZM282.41,127c0-2.84,3.49-5.74,6.58-5.74s6.58,2.9,6.58,5.74Zm108.31-11.72a14.75,14.75,0,0,0,.69,29.48c4.82,0,9.42-1.91,12.11-5.48a1.25,1.25,0,0,0-.3-1.77l-3.45-2.41a1.23,1.23,0,0,0-1.71.29c-1.36,1.84-4.24,2.82-6.65,2.82-3.45,0-6.93-3.41-6.93-6.21h19.91a1.26,1.26,0,0,0,1.25-1.19c0-.26,0-.53,0-.8C405.66,121,399.18,114.85,390.72,115.24ZM384.83,127c0-2.84,3.5-5.74,6.58-5.74S398,124.12,398,127Zm360.78-11.72a14.75,14.75,0,0,0,.7,29.48c4.81,0,9.41-1.91,12.1-5.48a1.24,1.24,0,0,0-.29-1.77l-3.45-2.41a1.24,1.24,0,0,0-1.72.29c-1.36,1.84-4.24,2.82-6.64,2.82-3.46,0-6.94-3.41-6.94-6.21h19.91a1.25,1.25,0,0,0,1.25-1.19c0-.26,0-.53,0-.8C760.56,121,754.07,114.85,745.61,115.24ZM739.73,127c0-2.84,3.49-5.74,6.58-5.74s6.57,2.9,6.57,5.74Zm-475,17.76a17.37,17.37,0,0,0,6.87-1.66,1.23,1.23,0,0,0,.64-1.61l-1.87-4.64a1.26,1.26,0,0,0-1.67-.67c-2.71,1.21-4.37,1.25-5.06.83s-1.15-2.18-1.14-2.95v-.29h0V122.35h8a1.25,1.25,0,0,0,1.25-1.25v-3.75a1.25,1.25,0,0,0-1.25-1.25h-8v-7.62a1.25,1.25,0,0,0-1.25-1.25h-5a1.25,1.25,0,0,0-1.25,1.25v7.62h-3.73a1.25,1.25,0,0,0-1.25,1.25v3.75a1.25,1.25,0,0,0,1.25,1.25H255v11.36h0v.23c0,3,1.17,7.23,4.7,9.41A9.42,9.42,0,0,0,264.71,144.72Zm194.6-7.91a1.25,1.25,0,0,0-1.67-.67c-2.7,1.21-4.37,1.25-5.06.83s-1.14-2.18-1.13-2.95v-.29h0V122.35h8a1.25,1.25,0,0,0,1.25-1.25v-3.75a1.25,1.25,0,0,0-1.25-1.25h-8v-7.62a1.25,1.25,0,0,0-1.25-1.25h-5a1.25,1.25,0,0,0-1.25,1.25v7.62h-3.73a1.25,1.25,0,0,0-1.25,1.25v3.75a1.25,1.25,0,0,0,1.25,1.25H444v11.36h0v.23c0,3,1.17,7.23,4.69,9.41a9.43,9.43,0,0,0,5,1.37,17.41,17.41,0,0,0,6.87-1.66,1.25,1.25,0,0,0,.64-1.61ZM313.56,103.18h-5a1.25,1.25,0,0,0-1.25,1.25V142.6a1.25,1.25,0,0,0,1.25,1.25h5a1.24,1.24,0,0,0,1.24-1.25V104.43A1.24,1.24,0,0,0,313.56,103.18Zm12,0h-5a1.25,1.25,0,0,0-1.25,1.25V142.6a1.25,1.25,0,0,0,1.25,1.25h5a1.24,1.24,0,0,0,1.24-1.25V104.43A1.24,1.24,0,0,0,325.56,103.18ZM215.93,142.6V117.35a1.25,1.25,0,0,0-1.25-1.25h-5a1.25,1.25,0,0,0-1.25,1.25V142.6a1.25,1.25,0,0,0,1.25,1.25h5A1.25,1.25,0,0,0,215.93,142.6Zm-3.69-30.11a4.66,4.66,0,1,0-4.66-4.66A4.66,4.66,0,0,0,212.24,112.49Zm125.3,3.61h-5a1.25,1.25,0,0,0-1.25,1.25V142.6a1.25,1.25,0,0,0,1.25,1.25h5a1.25,1.25,0,0,0,1.25-1.25V117.35A1.25,1.25,0,0,0,337.54,116.1Zm-2.44-12.93a4.66,4.66,0,1,0,4.66,4.66A4.66,4.66,0,0,0,335.1,103.17Zm283.31,0h-5a1.25,1.25,0,0,0-1.25,1.25V142.6a1.25,1.25,0,0,0,1.25,1.25h5a1.25,1.25,0,0,0,1.25-1.25V104.43A1.25,1.25,0,0,0,618.41,103.18Zm12.07,12.92h-5a1.25,1.25,0,0,0-1.25,1.25V142.6a1.25,1.25,0,0,0,1.25,1.25h5a1.25,1.25,0,0,0,1.25-1.25V117.35A1.25,1.25,0,0,0,630.48,116.1ZM628,103.17a4.66,4.66,0,1,0,4.66,4.66A4.66,4.66,0,0,0,628,103.17Zm-65.55,12.22c-5,0-8.73,1.32-10.84,5a10.56,10.56,0,0,0-8.69-5,11.8,11.8,0,0,0-8.93,3.66v-1.7a1.25,1.25,0,0,0-1.25-1.25h-5a1.25,1.25,0,0,0-1.25,1.25V142.6a1.25,1.25,0,0,0,1.25,1.25h5A1.25,1.25,0,0,0,534,142.6V129.54a11,11,0,0,1,.26-2.78c1-3,3-4.54,5.6-4.54,3.45,0,6.11,1.81,6.26,7.32V142.6a1.25,1.25,0,0,0,1.25,1.25h5a1.25,1.25,0,0,0,1.25-1.25V129.54a11.52,11.52,0,0,1,.25-2.78c.92-3.1,2.92-4.54,5.53-4.54,3.45,0,6.1,1.81,6.26,7.32V142.6a1.25,1.25,0,0,0,1.25,1.25h5a1.25,1.25,0,0,0,1.25-1.25V126.73C573.19,120.27,567.72,115.41,562.49,115.39ZM665,116.1h-5a1.25,1.25,0,0,0-1.25,1.25v1.9a11.64,11.64,0,0,0-8.84-4c-7.39,0-13.63,6.61-13.63,14.75s6.24,14.75,13.63,14.75a11.64,11.64,0,0,0,8.84-4v1.91a1.25,1.25,0,0,0,1.25,1.25h5a1.25,1.25,0,0,0,1.25-1.25V117.35A1.25,1.25,0,0,0,665,116.1Zm-13.72,21.62a7.76,7.76,0,1,1,7.45-7.75A7.6,7.6,0,0,1,651.23,137.72Zm-162.35.08-3.82-2.72a1.24,1.24,0,0,0-1.64.17,7.3,7.3,0,0,1-5.46,2.47,7.76,7.76,0,0,1,0-15.5,7.29,7.29,0,0,1,5.44,2.45,1.24,1.24,0,0,0,1.63.16l3.82-2.72a1.25,1.25,0,0,0,.23-1.83,14.75,14.75,0,1,0,0,19.35A1.25,1.25,0,0,0,488.88,137.8Zm239,0-3.82-2.72a1.24,1.24,0,0,0-1.64.17,7.3,7.3,0,0,1-5.45,2.47,7.76,7.76,0,0,1,0-15.5,7.29,7.29,0,0,1,5.43,2.45,1.24,1.24,0,0,0,1.63.16l3.83-2.72a1.24,1.24,0,0,0,.22-1.83,14.75,14.75,0,1,0,0,19.35A1.25,1.25,0,0,0,727.9,137.8ZM507.28,115.22A14.75,14.75,0,1,0,522,130,14.76,14.76,0,0,0,507.28,115.22Zm0,22.5a7.76,7.76,0,1,1,7.46-7.75A7.61,7.61,0,0,1,507.28,137.72ZM594,115.22a11.64,11.64,0,0,0-8.84,4v-1.9a1.25,1.25,0,0,0-1.25-1.25h-5a1.25,1.25,0,0,0-1.25,1.25v37.5a1.25,1.25,0,0,0,1.25,1.25h5a1.25,1.25,0,0,0,1.25-1.25V140.69a11.64,11.64,0,0,0,8.84,4c7.39,0,13.63-6.6,13.63-14.75S601.42,115.22,594,115.22Zm-1.37,22.5a7.76,7.76,0,1,1,7.45-7.75A7.6,7.6,0,0,1,592.66,137.72ZM247.5,142.6V126.73c0-6.46-5.48-11.32-10.7-11.34a12.81,12.81,0,0,0-2,.15h0l-.2,0h0a11.52,11.52,0,0,0-5.38,2.33l-.06,0h0a12.52,12.52,0,0,0-1.2,1.11v-1.7a1.25,1.25,0,0,0-1.25-1.25h-5a1.25,1.25,0,0,0-1.25,1.25V142.6a1.25,1.25,0,0,0,1.25,1.25h5A1.25,1.25,0,0,0,228,142.6V129.54a11,11,0,0,1,.26-2.78c.94-3,3-4.53,5.58-4.54h.31c3.26.13,5.74,2,5.89,7.31V142.6a1.25,1.25,0,0,0,1.25,1.25h5A1.25,1.25,0,0,0,247.5,142.6Zm178.27-27.21a12.94,12.94,0,0,0-2,.15h0l-.19,0h0a11.52,11.52,0,0,0-5.38,2.33l-.06,0h0a11.43,11.43,0,0,0-1.2,1.11v-1.7a1.25,1.25,0,0,0-1.25-1.25h-5a1.25,1.25,0,0,0-1.25,1.25V142.6a1.25,1.25,0,0,0,1.25,1.25h5a1.25,1.25,0,0,0,1.25-1.25V129.54a11,11,0,0,1,.26-2.78c.94-3,3-4.53,5.57-4.54h.32c3.26.13,5.74,2,5.89,7.31V142.6a1.25,1.25,0,0,0,1.25,1.25h5a1.25,1.25,0,0,0,1.25-1.25V126.73C436.47,120.27,431,115.41,425.77,115.39Zm261.27,0a12.94,12.94,0,0,0-2,.15h0l-.19,0h0a11.48,11.48,0,0,0-5.38,2.33l-.06,0h0a11.43,11.43,0,0,0-1.2,1.11v-1.7A1.25,1.25,0,0,0,677,116.1h-5a1.25,1.25,0,0,0-1.25,1.25V142.6a1.25,1.25,0,0,0,1.25,1.25h5a1.25,1.25,0,0,0,1.25-1.25V129.54a11.44,11.44,0,0,1,.25-2.78c.95-3,3-4.53,5.58-4.54h.31c3.27.13,5.75,2,5.9,7.31V142.6a1.25,1.25,0,0,0,1.25,1.25h5a1.25,1.25,0,0,0,1.25-1.25V126.73C697.74,120.27,692.26,115.41,687,115.39Zm-315.69.71h-5a1.25,1.25,0,0,0-1.25,1.25v2.71a11.41,11.41,0,0,0-9.32-4.84c-7.18,0-13.24,6.41-13.24,14.32s6.06,14.32,13.24,14.32A11.41,11.41,0,0,0,365.1,139v3.45a7.06,7.06,0,0,1-13,3.76,1.23,1.23,0,0,0-1-.56h-5.53a1.25,1.25,0,0,0-1.18,1.67A14.56,14.56,0,0,0,372.59,143s0-.08,0-.12v-25.5A1.25,1.25,0,0,0,371.35,116.1Zm-14,20.68a7.25,7.25,0,1,1,7-7.24A7.14,7.14,0,0,1,357.31,136.78ZM129.64,65a65,65,0,1,0,65,65A65,65,0,0,0,129.64,65ZM92.39,142.6a1.25,1.25,0,0,1-1.25,1.25h-5a1.25,1.25,0,0,1-1.25-1.25V117.35a1.25,1.25,0,0,1,1.25-1.25h5a1.25,1.25,0,0,1,1.25,1.25ZM88.7,112.49a4.66,4.66,0,1,1,4.66-4.66A4.66,4.66,0,0,1,88.7,112.49Zm37.36,30.11a1.25,1.25,0,0,1-1.25,1.25h-5a1.25,1.25,0,0,1-1.25-1.25v-1.91a11.62,11.62,0,0,1-8.83,4c-7.4,0-13.64-6.6-13.64-14.75s6.24-14.75,13.64-14.75a11.62,11.62,0,0,1,8.83,4v-1.9a1.25,1.25,0,0,1,1.25-1.25h5a1.25,1.25,0,0,1,1.25,1.25Zm40-55.13a3,3,0,1,1,.31,4.24A3,3,0,0,1,166.06,87.47Zm-10,15.58a3,3,0,1,1,2.73,4.24,2.94,2.94,0,0,1-1.25-.27A3,3,0,0,1,156.09,103.05Zm4,55.46a2.91,2.91,0,0,1-1.25.27,3,3,0,1,1,1.25-.27Zm10.25,14.38a3,3,0,0,1-4.23-.3,3,3,0,1,1,4.23.3Zm5.62-29h-5a1.25,1.25,0,0,1-1.25-1.25V129.54c-.16-5.51-2.82-7.32-6.26-7.32-2.61,0-4.61,1.44-5.53,4.54a11.52,11.52,0,0,0-.25,2.78V142.6a1.25,1.25,0,0,1-1.25,1.25h-5a1.25,1.25,0,0,1-1.25-1.25V129.54c-.15-5.51-2.81-7.32-6.26-7.32-2.57,0-4.65,1.53-5.6,4.54a11,11,0,0,0-.26,2.78V142.6a1.25,1.25,0,0,1-1.25,1.25h-5a1.25,1.25,0,0,1-1.25-1.25V117.35a1.25,1.25,0,0,1,1.25-1.25h5a1.25,1.25,0,0,1,1.25,1.25v1.7a11.78,11.78,0,0,1,8.93-3.66,10.56,10.56,0,0,1,8.69,5c2.11-3.65,5.87-5,10.84-5,5.22,0,10.7,4.88,10.7,11.34V142.6A1.25,1.25,0,0,1,176,143.85Zm-64.88-21.63a7.76,7.76,0,1,0,7.46,7.75A7.61,7.61,0,0,0,111.09,122.22Z"/></svg>