<svg id="Default" xmlns="http://www.w3.org/2000/svg" viewBox="0 0 377 260"><title>iamsold-logoMono - Standard</title><path d="M310.31,103.18h-5a1.25,1.25,0,0,0-1.25,1.25v14.82a11.61,11.61,0,0,0-8.83-4c-7.39,0-13.64,6.61-13.64,14.75s6.25,14.75,13.64,14.75a11.61,11.61,0,0,0,8.83-4v1.91a1.25,1.25,0,0,0,1.25,1.25h5a1.24,1.24,0,0,0,1.24-1.25V104.43A1.24,1.24,0,0,0,310.31,103.18Zm-13.72,34.54A7.76,7.76,0,1,1,304,130,7.61,7.61,0,0,1,296.59,137.72ZM265,130a14.75,14.75,0,1,0-14.75,14.75A14.76,14.76,0,0,0,265,130Zm-22.21,0a7.46,7.46,0,1,1,7.46,7.75A7.61,7.61,0,0,1,242.75,130Zm33-26.79h-5a1.25,1.25,0,0,0-1.25,1.25V142.6a1.25,1.25,0,0,0,1.25,1.25h5A1.25,1.25,0,0,0,277,142.6V104.43A1.25,1.25,0,0,0,275.71,103.18Zm-54.57,24.08c-2.86-.56-5.33-1-5.33-3.09,0-.74.35-2.47,3.58-2.47a3.3,3.3,0,0,1,3.18,1.79c.39.79.55,1,1.11,1h5.68a1,1,0,0,0,.75-.25.84.84,0,0,0,.15-.7,8.58,8.58,0,0,0-3.71-6.36,12.7,12.7,0,0,0-7.16-2c-5.2,0-11.28,2.36-11.28,9s5.48,7.68,9.87,8.56c2.83.56,5.27,1.05,5.27,3,0,2.15-2.42,2.47-3.86,2.47-2.38,0-3.35-1-3.75-1.84s-.57-.94-1.12-.94h-5.69a1,1,0,0,0-.74.25.84.84,0,0,0-.15.7c.59,5.24,4.87,8.37,11.45,8.37,5.59,0,11.56-2.36,11.56-9S225.51,128.12,221.14,127.26ZM215.41,71a3,3,0,1,0-3-3A3,3,0,0,0,215.41,71Zm-33.5,9.88a3,3,0,1,0-2.53-1.38A3,3,0,0,0,181.91,80.88ZM232,73.39a3.17,3.17,0,0,0,.85.12,3,3,0,1,0-.85-.12Zm15.29,7a3,3,0,1,0,3.23-5h0a3,3,0,0,0-3.23,5Zm-63.72,99.3a3,3,0,0,0-3.24,5.05,3,3,0,0,0,1.62.48,3,3,0,0,0,1.62-5.53Zm78.69-87.3a3,3,0,0,0,2.26-5h0a3,3,0,1,0-2.26,5ZM232.1,186.6a3,3,0,0,0,.85,5.88,2.79,2.79,0,0,0,.85-.13,3,3,0,1,0-1.7-5.75Zm32.19-18.28a3,3,0,0,0-4.23.31h0a3,3,0,0,0,.31,4.23,3,3,0,0,0,2,.73,3,3,0,0,0,2-5.27Zm-16.91,11.3a3,3,0,0,0,1.62,5.52,3,3,0,0,0,1.62-.47,3,3,0,0,0-3.24-5ZM215.49,189a3,3,0,1,0,3,3A3,3,0,0,0,215.49,189Zm57.61-36a3,3,0,1,0-2.49,5.46,2.86,2.86,0,0,0,1.24.27A3,3,0,0,0,273.1,153ZM198.87,186.6a3,3,0,0,0-1.69,5.76,3.12,3.12,0,0,0,.85.12,3,3,0,0,0,.84-5.88Zm-.93-113.06a2.85,2.85,0,0,0,.86-.13,3,3,0,1,0-.86.13ZM129.89,65a65,65,0,1,0,65,65A65,65,0,0,0,129.89,65ZM92.63,142.6a1.25,1.25,0,0,1-1.25,1.25h-5a1.25,1.25,0,0,1-1.25-1.25V117.35a1.25,1.25,0,0,1,1.25-1.25h5a1.25,1.25,0,0,1,1.25,1.25ZM89,112.49a4.66,4.66,0,1,1,4.66-4.66A4.66,4.66,0,0,1,89,112.49Zm37.36,30.11a1.25,1.25,0,0,1-1.25,1.25h-5a1.25,1.25,0,0,1-1.25-1.25v-1.91a11.64,11.64,0,0,1-8.84,4c-7.39,0-13.63-6.6-13.63-14.75s6.24-14.75,13.63-14.75a11.64,11.64,0,0,1,8.84,4v-1.9a1.25,1.25,0,0,1,1.25-1.25h5a1.25,1.25,0,0,1,1.25,1.25Zm40-55.13a3,3,0,0,1,4.54,3.93,3,3,0,0,1-2.28,1,3,3,0,0,1-1.95-.73A3,3,0,0,1,166.31,87.47Zm-10,15.58a3,3,0,1,1,2.73,4.24,2.86,2.86,0,0,1-1.24-.27A3,3,0,0,1,156.33,103.05Zm4,55.46a2.94,2.94,0,0,1-1.25.27,3,3,0,1,1,1.25-.27Zm10.24,14.38a2.92,2.92,0,0,1-2,.74,3,3,0,1,1,2-.74Zm5.62-29h-5A1.25,1.25,0,0,1,170,142.6V129.54c-.15-5.51-2.81-7.32-6.26-7.32-2.61,0-4.6,1.44-5.52,4.54a11.52,11.52,0,0,0-.25,2.78V142.6a1.25,1.25,0,0,1-1.25,1.25h-5a1.25,1.25,0,0,1-1.25-1.25V129.54c-.16-5.51-2.82-7.32-6.26-7.32-2.58,0-4.66,1.53-5.61,4.54a11.44,11.44,0,0,0-.25,2.78V142.6a1.25,1.25,0,0,1-1.25,1.25h-5a1.25,1.25,0,0,1-1.25-1.25V117.35a1.25,1.25,0,0,1,1.25-1.25h5a1.25,1.25,0,0,1,1.25,1.25v1.7a11.78,11.78,0,0,1,8.92-3.66,10.55,10.55,0,0,1,8.69,5c2.12-3.65,5.87-5,10.85-5,5.22,0,10.69,4.88,10.69,11.34V142.6A1.25,1.25,0,0,1,176.21,143.85Zm-64.87-21.63a7.76,7.76,0,1,0,7.45,7.75A7.61,7.61,0,0,0,111.34,122.22Z"/></svg>