<svg id="Default" xmlns="http://www.w3.org/2000/svg" viewBox="0 0 576 260"><defs><style>.cls-1{fill:#fff;}</style></defs><title>iammovebutler-logoMono - Reversed</title><path class="cls-1" d="M199.87,186.6a3,3,0,0,0-1.69,5.76,3.12,3.12,0,0,0,.85.12,3,3,0,0,0,.84-5.88Zm-.93-113.06a2.85,2.85,0,0,0,.86-.13,3,3,0,1,0-.86.13Zm49.37,6.8a3,3,0,1,0,3.23-5h0a3,3,0,0,0-3.23,5Zm-15.29-7a3.17,3.17,0,0,0,.85.12,3,3,0,1,0-.85-.12Zm37.07,32s0,0,0,0,0,0,0,0h0a3,3,0,0,0,2.73,1.75,3.09,3.09,0,0,0,1.25-.27,3,3,0,0,0,1.48-4,.08.08,0,0,1,0,0l0,0a3,3,0,1,0-5.45,2.5ZM216.41,71a3,3,0,1,0-3-3A3,3,0,0,0,216.41,71ZM184.59,179.64a3,3,0,0,0-3.24,5.05,3,3,0,0,0,1.62.48,3,3,0,0,0,1.62-5.53Zm-1.68-98.76a3,3,0,1,0-2.53-1.38A3,3,0,0,0,182.91,80.88Zm80.37,11.46a3,3,0,0,0,2.26-5h0a3,3,0,1,0-2.26,5Zm2,76a3,3,0,0,0-4.23.31h0a3,3,0,0,0,.31,4.23,3,3,0,0,0,2,.73,3,3,0,0,0,2-5.27ZM274.1,153a3,3,0,1,0-2.49,5.46,2.86,2.86,0,0,0,1.24.27A3,3,0,0,0,274.1,153Zm-25.72,26.61a3,3,0,0,0,1.62,5.52,3,3,0,0,0,1.62-.47,3,3,0,0,0-3.24-5Zm-15.28,7a3,3,0,0,0,.85,5.88,2.79,2.79,0,0,0,.85-.13,3,3,0,1,0-1.7-5.75ZM216.49,189a3,3,0,1,0,3,3A3,3,0,0,0,216.49,189Zm29.18-73.61c-5,0-8.73,1.32-10.84,5a10.58,10.58,0,0,0-8.7-5,11.78,11.78,0,0,0-8.92,3.66v-1.7A1.25,1.25,0,0,0,216,116.1h-5a1.25,1.25,0,0,0-1.25,1.25V142.6a1.25,1.25,0,0,0,1.25,1.25h5a1.25,1.25,0,0,0,1.25-1.25V129.54a11,11,0,0,1,.26-2.78c.94-3,3-4.54,5.6-4.54,3.44,0,6.1,1.81,6.26,7.32V142.6a1.25,1.25,0,0,0,1.25,1.25h5a1.25,1.25,0,0,0,1.25-1.25V129.54a11.52,11.52,0,0,1,.25-2.78c.92-3.1,2.92-4.54,5.53-4.54,3.44,0,6.1,1.81,6.26,7.32V142.6a1.25,1.25,0,0,0,1.25,1.25h5a1.25,1.25,0,0,0,1.25-1.25V126.73C256.37,120.27,250.89,115.41,245.67,115.39Zm30-.17A14.75,14.75,0,1,0,290.37,130,14.75,14.75,0,0,0,275.62,115.22Zm0,22.5a7.76,7.76,0,1,1,7.45-7.75A7.61,7.61,0,0,1,275.62,137.72Zm41.47-21.62h-5.26a1.25,1.25,0,0,0-1.19.86l-5,15.51-5-15.51a1.23,1.23,0,0,0-1.19-.86h-5.25a1.25,1.25,0,0,0-1.19,1.63L299,136.42l2.1,6.51a1.25,1.25,0,0,0,1.19.87h6.62a1.25,1.25,0,0,0,1.19-.87l.84-2.61,3.41-10.48h0l3.93-12.11A1.25,1.25,0,0,0,317.09,116.1Zm17.8-.86a14.75,14.75,0,0,0,.7,29.48c4.82,0,9.42-1.91,12.11-5.48a1.25,1.25,0,0,0-.3-1.77L344,135.06a1.24,1.24,0,0,0-1.72.29c-1.36,1.84-4.23,2.82-6.64,2.82-3.46,0-6.94-3.41-6.94-6.21h19.92a1.26,1.26,0,0,0,1.25-1.19c0-.26,0-.53,0-.8C349.84,121,343.36,114.85,334.89,115.24ZM329,127c0-2.84,3.49-5.74,6.58-5.74s6.57,2.9,6.57,5.74Zm41.67-11.74a11.64,11.64,0,0,0-8.84,4V104.43a1.25,1.25,0,0,0-1.25-1.25h-5a1.25,1.25,0,0,0-1.25,1.25V142.6a1.25,1.25,0,0,0,1.25,1.25h5a1.25,1.25,0,0,0,1.25-1.25v-1.91a11.64,11.64,0,0,0,8.84,4c7.39,0,13.63-6.6,13.63-14.75S378.07,115.22,370.68,115.22Zm-1.37,22.5a7.76,7.76,0,1,1,7.45-7.75A7.6,7.6,0,0,1,369.31,137.72Zm102.24-22.48a14.75,14.75,0,0,0,.69,29.48c4.82,0,9.42-1.91,12.11-5.48a1.25,1.25,0,0,0-.3-1.77l-3.45-2.41a1.23,1.23,0,0,0-1.71.29c-1.36,1.84-4.24,2.82-6.65,2.82-3.45,0-6.93-3.41-6.93-6.21h19.91a1.26,1.26,0,0,0,1.25-1.19c0-.26,0-.53,0-.8C486.49,121,480,114.85,471.55,115.24ZM465.66,127c0-2.84,3.5-5.74,6.58-5.74s6.58,2.9,6.58,5.74Zm-26.06,9.85a1.25,1.25,0,0,0-1.67-.67c-2.7,1.21-4.37,1.25-5.06.83s-1.14-2.18-1.13-2.95v-.29h0V122.35h8A1.25,1.25,0,0,0,441,121.1v-3.75a1.25,1.25,0,0,0-1.25-1.25h-8v-7.62a1.25,1.25,0,0,0-1.25-1.25h-5a1.25,1.25,0,0,0-1.25,1.25v7.62h-3.73a1.25,1.25,0,0,0-1.25,1.25v3.75a1.25,1.25,0,0,0,1.25,1.25h3.73v11.36h0v.23c0,3,1.17,7.23,4.69,9.41a9.43,9.43,0,0,0,5,1.37,17.41,17.41,0,0,0,6.87-1.66,1.25,1.25,0,0,0,.64-1.61Zm12.14-33.63h-5a1.25,1.25,0,0,0-1.25,1.25V142.6a1.25,1.25,0,0,0,1.25,1.25h5A1.25,1.25,0,0,0,453,142.6V104.43A1.25,1.25,0,0,0,451.74,103.18Zm54.11,12.92a4.66,4.66,0,1,0,4.66,4.66A4.66,4.66,0,0,0,505.85,116.1Zm-8.61,0h-5a1.25,1.25,0,0,0-1.25,1.25V142.6a1.25,1.25,0,0,0,1.25,1.25h5a1.25,1.25,0,0,0,1.25-1.25V117.35A1.25,1.25,0,0,0,497.24,116.1Zm-83,0h-5A1.24,1.24,0,0,0,408,117.3v13.06a11,11,0,0,1-.26,2.78c-.94,3-3,4.53-5.58,4.54h-.31c-3.26-.13-5.74-2-5.89-7.31V117.3a1.25,1.25,0,0,0-1.25-1.25h-5a1.25,1.25,0,0,0-1.25,1.25v15.87c0,6.46,5.47,11.32,10.69,11.34a12.85,12.85,0,0,0,2-.15h0l.2,0h0A11.51,11.51,0,0,0,406.7,142l.05,0h0a11.53,11.53,0,0,0,1.21-1.11v1.7a1.24,1.24,0,0,0,1.25,1.25h5a1.24,1.24,0,0,0,1.24-1.25V117.3A1.24,1.24,0,0,0,414.21,116.05ZM130.89,65a65,65,0,1,0,65,65A65,65,0,0,0,130.89,65ZM93.63,142.6a1.25,1.25,0,0,1-1.25,1.25h-5a1.25,1.25,0,0,1-1.25-1.25V117.35a1.25,1.25,0,0,1,1.25-1.25h5a1.25,1.25,0,0,1,1.25,1.25ZM90,112.49a4.66,4.66,0,1,1,4.66-4.66A4.66,4.66,0,0,1,90,112.49Zm37.36,30.11a1.25,1.25,0,0,1-1.25,1.25h-5a1.25,1.25,0,0,1-1.25-1.25v-1.91a11.64,11.64,0,0,1-8.84,4c-7.39,0-13.63-6.6-13.63-14.75s6.24-14.75,13.63-14.75a11.64,11.64,0,0,1,8.84,4v-1.9a1.25,1.25,0,0,1,1.25-1.25h5a1.25,1.25,0,0,1,1.25,1.25Zm40-55.13a3,3,0,0,1,4.54,3.93,3,3,0,0,1-2.28,1,3,3,0,0,1-1.95-.73A3,3,0,0,1,167.31,87.47Zm-10,15.58a3,3,0,1,1,2.73,4.24,2.86,2.86,0,0,1-1.24-.27A3,3,0,0,1,157.33,103.05Zm4,55.46a2.94,2.94,0,0,1-1.25.27,3,3,0,1,1,1.25-.27Zm10.24,14.38a2.92,2.92,0,0,1-2,.74,3,3,0,1,1,2-.74Zm5.62-29h-5A1.25,1.25,0,0,1,171,142.6V129.54c-.15-5.51-2.81-7.32-6.26-7.32-2.61,0-4.6,1.44-5.52,4.54a11.52,11.52,0,0,0-.25,2.78V142.6a1.25,1.25,0,0,1-1.25,1.25h-5a1.25,1.25,0,0,1-1.25-1.25V129.54c-.16-5.51-2.82-7.32-6.26-7.32-2.58,0-4.66,1.53-5.61,4.54a11.44,11.44,0,0,0-.25,2.78V142.6a1.25,1.25,0,0,1-1.25,1.25h-5a1.25,1.25,0,0,1-1.25-1.25V117.35a1.25,1.25,0,0,1,1.25-1.25h5a1.25,1.25,0,0,1,1.25,1.25v1.7a11.78,11.78,0,0,1,8.92-3.66,10.55,10.55,0,0,1,8.69,5c2.12-3.65,5.87-5,10.85-5,5.22,0,10.69,4.88,10.69,11.34V142.6A1.25,1.25,0,0,1,177.21,143.85Zm-64.87-21.63a7.76,7.76,0,1,0,7.45,7.75A7.61,7.61,0,0,0,112.34,122.22Z"/></svg>