<svg id="Default" xmlns="http://www.w3.org/2000/svg" viewBox="0 0 508 260"><defs><style>.cls-1{fill:#002d37;}</style></defs><title>iamproperty-Colour - Reversed</title><path class="cls-1" d="M197.94,73.54a2.85,2.85,0,0,0,.86-.13,3,3,0,1,0-.86.13Zm.93,113.06a3,3,0,0,0-1.69,5.76,3.12,3.12,0,0,0,.85.12,3,3,0,0,0,.84-5.88ZM247.31,80.34a3,3,0,1,0,3.23-5h0a3,3,0,0,0-3.23,5Zm-15.29-7a3.17,3.17,0,0,0,.85.12,3,3,0,1,0-.85-.12Zm-50.11,7.49a3,3,0,1,0-2.53-1.38A3,3,0,0,0,181.91,80.88Zm1.68,98.76a3,3,0,0,0-3.24,5.05,3,3,0,0,0,1.62.48,3,3,0,0,0,1.62-5.53Zm80.7-11.32a3,3,0,0,0-4.23.31h0a3,3,0,0,0,.31,4.23,3,3,0,0,0,2,.73,3,3,0,0,0,2-5.27Zm-16.91,11.3a3,3,0,0,0,1.62,5.52,3,3,0,0,0,1.62-.47,3,3,0,0,0-3.24-5Zm14.9-87.28a3,3,0,0,0,2.26-5h0a3,3,0,1,0-2.26,5ZM215.49,189a3,3,0,1,0,3,3A3,3,0,0,0,215.49,189Zm53.6-83.57s0,0,0,0,0,0,0,0h0a3,3,0,0,0,2.73,1.75,3.09,3.09,0,0,0,1.25-.27,3,3,0,0,0,1.48-4,.08.08,0,0,1,0,0l0,0a3,3,0,1,0-5.45,2.5Zm4,47.58a3,3,0,1,0-2.49,5.46,2.86,2.86,0,0,0,1.24.27A3,3,0,0,0,273.1,153ZM215.41,71a3,3,0,1,0-3-3A3,3,0,0,0,215.41,71ZM232.1,186.6a3,3,0,0,0,.85,5.88,2.79,2.79,0,0,0,.85-.13,3,3,0,1,0-1.7-5.75ZM129.89,65a65,65,0,1,0,65,65A65,65,0,0,0,129.89,65ZM92.63,142.6a1.25,1.25,0,0,1-1.25,1.25h-5a1.25,1.25,0,0,1-1.25-1.25V117.35a1.25,1.25,0,0,1,1.25-1.25h5a1.25,1.25,0,0,1,1.25,1.25ZM89,112.49a4.66,4.66,0,1,1,4.66-4.66A4.66,4.66,0,0,1,89,112.49Zm37.36,30.11a1.25,1.25,0,0,1-1.25,1.25h-5a1.25,1.25,0,0,1-1.25-1.25v-1.91a11.64,11.64,0,0,1-8.84,4c-7.39,0-13.63-6.6-13.63-14.75s6.24-14.75,13.63-14.75a11.64,11.64,0,0,1,8.84,4v-1.9a1.25,1.25,0,0,1,1.25-1.25h5a1.25,1.25,0,0,1,1.25,1.25Zm40-55.13a3,3,0,0,1,4.54,3.93,3,3,0,0,1-2.28,1,3,3,0,0,1-1.95-.73A3,3,0,0,1,166.31,87.47Zm-10,15.58a3,3,0,1,1,2.73,4.24,2.86,2.86,0,0,1-1.24-.27A3,3,0,0,1,156.33,103.05Zm4,55.46a2.94,2.94,0,0,1-1.25.27,3,3,0,1,1,1.25-.27Zm10.24,14.38a2.92,2.92,0,0,1-2,.74,3,3,0,1,1,2-.74Zm6.87-30.29a1.25,1.25,0,0,1-1.25,1.25h-5A1.25,1.25,0,0,1,170,142.6V129.54c-.15-5.51-2.81-7.32-6.26-7.32-2.61,0-4.6,1.44-5.52,4.54a11.52,11.52,0,0,0-.25,2.78V142.6a1.25,1.25,0,0,1-1.25,1.25h-5a1.25,1.25,0,0,1-1.25-1.25V129.54c-.16-5.51-2.82-7.32-6.26-7.32-2.58,0-4.66,1.53-5.61,4.54a11.44,11.44,0,0,0-.25,2.78V142.6a1.25,1.25,0,0,1-1.25,1.25h-5a1.25,1.25,0,0,1-1.25-1.25V117.35a1.25,1.25,0,0,1,1.25-1.25h5a1.25,1.25,0,0,1,1.25,1.25v1.7a11.78,11.78,0,0,1,8.92-3.66,10.55,10.55,0,0,1,8.69,5c2.12-3.65,5.87-5,10.85-5,5.22,0,10.69,4.88,10.69,11.34Zm-66.12-20.38a7.76,7.76,0,1,0,7.45,7.75A7.61,7.61,0,0,0,111.34,122.22Zm113.71-7a11.64,11.64,0,0,0-8.84,4v-1.9A1.25,1.25,0,0,0,215,116.1h-5a1.25,1.25,0,0,0-1.25,1.25v37.5A1.25,1.25,0,0,0,210,156.1h5a1.25,1.25,0,0,0,1.25-1.25V140.69a11.64,11.64,0,0,0,8.84,4c7.39,0,13.63-6.6,13.63-14.75S232.44,115.22,225.05,115.22Zm-1.37,22.5a7.76,7.76,0,1,1,7.45-7.75A7.6,7.6,0,0,1,223.68,137.72Zm90.8-22.5a11.64,11.64,0,0,0-8.84,4v-1.9a1.25,1.25,0,0,0-1.25-1.25h-5a1.25,1.25,0,0,0-1.25,1.25v37.5a1.25,1.25,0,0,0,1.25,1.25h5a1.25,1.25,0,0,0,1.25-1.25V140.69a11.64,11.64,0,0,0,8.84,4c7.39,0,13.63-6.6,13.63-14.75S321.87,115.22,314.48,115.22Zm-1.37,22.5a7.76,7.76,0,1,1,7.45-7.75A7.6,7.6,0,0,1,313.11,137.72Zm-34.22-22.5A14.75,14.75,0,1,0,293.64,130,14.75,14.75,0,0,0,278.89,115.22Zm0,22.5a7.76,7.76,0,1,1,7.45-7.75A7.6,7.6,0,0,1,278.89,137.72Zm130.42-.91a1.25,1.25,0,0,0-1.67-.67c-2.7,1.21-4.37,1.25-5.06.83s-1.15-2.18-1.13-2.95v-.29h0V122.35h8a1.25,1.25,0,0,0,1.25-1.25v-3.75a1.25,1.25,0,0,0-1.25-1.25h-8v-7.62a1.25,1.25,0,0,0-1.25-1.25h-5a1.25,1.25,0,0,0-1.25,1.25v7.62h-3.74a1.25,1.25,0,0,0-1.25,1.25v3.75a1.25,1.25,0,0,0,1.25,1.25H394v11.36h0v.23c0,3,1.17,7.23,4.69,9.41a9.42,9.42,0,0,0,5,1.37,17.41,17.41,0,0,0,6.88-1.66,1.25,1.25,0,0,0,.64-1.61Zm32.55-20.71H436.6a1.22,1.22,0,0,0-1.18.86l-6.24,19.2L422.94,117a1.25,1.25,0,0,0-1.19-.86h-5.26a1.25,1.25,0,0,0-1.19,1.63l6.07,18.69,2.1,6.51a1.25,1.25,0,0,0,1.19.87h2l-1.19,3.67c-.32.78-.93,1.78-1.67,2s-2.37-.23-4.67-2.1a1.27,1.27,0,0,0-1.79.22l-3,4a1.25,1.25,0,0,0,.21,1.72,17.36,17.36,0,0,0,6.22,3.37,9.41,9.41,0,0,0,5.21,0c3.9-1.17,6.14-4.85,6.92-7.73l10.13-31.19A1.25,1.25,0,0,0,441.86,116.1Zm-95.63-.86a14.75,14.75,0,0,0,.69,29.48c4.82,0,9.42-1.91,12.11-5.48a1.24,1.24,0,0,0-.29-1.77l-3.46-2.41a1.23,1.23,0,0,0-1.71.29c-1.36,1.84-4.24,2.82-6.65,2.82-3.45,0-6.93-3.41-6.93-6.21H359.9a1.25,1.25,0,0,0,1.25-1.19c0-.26,0-.53,0-.8C361.17,121,354.69,114.85,346.23,115.24ZM340.35,127c0-2.84,3.49-5.74,6.57-5.74s6.58,2.9,6.58,5.74ZM250.67,142.6V117.35a1.25,1.25,0,0,0-1.25-1.25h-5a1.25,1.25,0,0,0-1.25,1.25V142.6a1.25,1.25,0,0,0,1.25,1.25h5A1.25,1.25,0,0,0,250.67,142.6Zm12-21.84a4.66,4.66,0,1,0-4.66,4.66A4.66,4.66,0,0,0,262.69,120.76Zm109.23-4.66h-5a1.25,1.25,0,0,0-1.25,1.25V142.6a1.25,1.25,0,0,0,1.25,1.25h5a1.25,1.25,0,0,0,1.25-1.25V117.35A1.25,1.25,0,0,0,371.92,116.1Zm8.61,0a4.66,4.66,0,1,0,4.66,4.66A4.66,4.66,0,0,0,380.53,116.1Z"/></svg>