<svg id="Default" xmlns="http://www.w3.org/2000/svg" viewBox="0 0 508 260"><defs><style>.cls-1{fill:#fff;}</style></defs><title>iamproperty-Mono - Reversed</title><path class="cls-1" d="M198.09,73.54a2.79,2.79,0,0,0,.85-.13,3,3,0,1,0-.85.13ZM199,186.6a3,3,0,0,0-1.69,5.76,3.12,3.12,0,0,0,.85.12,3,3,0,0,0,.84-5.88ZM247.46,80.34a3,3,0,1,0,3.23-5h0a3,3,0,0,0-3.23,5Zm-15.29-7a3.12,3.12,0,0,0,.85.12,3,3,0,1,0-.85-.12Zm-50.12,7.49a3,3,0,1,0-2.52-1.38A3,3,0,0,0,182.05,80.88Zm1.69,98.76a3,3,0,1,0,.91,4.14A3,3,0,0,0,183.74,179.64Zm80.7-11.32a3,3,0,0,0-4.23.31h0a3,3,0,1,0,4.23-.31Zm-16.92,11.3a3,3,0,1,0,4.15.9A3,3,0,0,0,247.52,179.62Zm14.9-87.28a3,3,0,0,0,2.27-5h0a3,3,0,1,0-2.27,5ZM215.64,189a3,3,0,1,0,3,3A3,3,0,0,0,215.64,189Zm53.59-83.57a.08.08,0,0,1,0,0l0,0h0a3,3,0,1,0,5.46-2.5.08.08,0,0,0,0,0v0a3,3,0,0,0-5.46,2.5Zm4,47.58a3,3,0,0,0-2.49,5.46,2.94,2.94,0,0,0,1.25.27,3,3,0,0,0,1.24-5.73ZM215.55,71a3,3,0,1,0-3-3A3,3,0,0,0,215.55,71Zm16.7,115.6a3,3,0,0,0,.85,5.88,2.83,2.83,0,0,0,.85-.13,3,3,0,0,0-1.7-5.75ZM130,65a65,65,0,1,0,65,65A65,65,0,0,0,130,65ZM92.78,142.6a1.25,1.25,0,0,1-1.25,1.25h-5a1.25,1.25,0,0,1-1.25-1.25V117.35a1.25,1.25,0,0,1,1.25-1.25h5a1.25,1.25,0,0,1,1.25,1.25Zm-3.69-30.11a4.66,4.66,0,1,1,4.66-4.66A4.66,4.66,0,0,1,89.09,112.49Zm37.36,30.11a1.25,1.25,0,0,1-1.25,1.25h-5A1.25,1.25,0,0,1,119,142.6v-1.91a11.61,11.61,0,0,1-8.83,4c-7.39,0-13.64-6.6-13.64-14.75s6.25-14.75,13.64-14.75a11.61,11.61,0,0,1,8.83,4v-1.9a1.25,1.25,0,0,1,1.25-1.25h5a1.25,1.25,0,0,1,1.25,1.25Zm40-55.13a3,3,0,1,1,.31,4.24A3,3,0,0,1,166.45,87.47Zm-10,15.58a3,3,0,1,1,2.73,4.24A2.86,2.86,0,0,1,158,107,3,3,0,0,1,156.48,103.05Zm4,55.46a2.89,2.89,0,0,1-1.24.27,3,3,0,1,1,1.24-.27Zm10.25,14.38a2.94,2.94,0,0,1-2,.74,3,3,0,1,1,2-.74Zm6.87-30.29a1.25,1.25,0,0,1-1.25,1.25h-5a1.25,1.25,0,0,1-1.25-1.25V129.54c-.16-5.51-2.81-7.32-6.26-7.32-2.61,0-4.61,1.44-5.53,4.54a11.52,11.52,0,0,0-.25,2.78V142.6a1.25,1.25,0,0,1-1.25,1.25h-5a1.25,1.25,0,0,1-1.25-1.25V129.54c-.15-5.51-2.81-7.32-6.26-7.32-2.57,0-4.65,1.53-5.6,4.54a11,11,0,0,0-.26,2.78V142.6a1.25,1.25,0,0,1-1.25,1.25h-5A1.25,1.25,0,0,1,131,142.6V117.35a1.25,1.25,0,0,1,1.25-1.25h5a1.25,1.25,0,0,1,1.25,1.25v1.7a11.8,11.8,0,0,1,8.93-3.66,10.56,10.56,0,0,1,8.69,5c2.11-3.65,5.87-5,10.84-5,5.23,0,10.7,4.88,10.7,11.34Zm-66.13-20.38a7.76,7.76,0,1,0,7.46,7.75A7.61,7.61,0,0,0,111.48,122.22Zm113.71-7a11.61,11.61,0,0,0-8.83,4v-1.9a1.25,1.25,0,0,0-1.25-1.25h-5a1.25,1.25,0,0,0-1.25,1.25v37.5a1.25,1.25,0,0,0,1.25,1.25h5a1.25,1.25,0,0,0,1.25-1.25V140.69a11.61,11.61,0,0,0,8.83,4c7.4,0,13.64-6.6,13.64-14.75S232.59,115.22,225.19,115.22Zm-1.36,22.5a7.76,7.76,0,1,1,7.45-7.75A7.61,7.61,0,0,1,223.83,137.72Zm90.79-22.5a11.61,11.61,0,0,0-8.83,4v-1.9a1.25,1.25,0,0,0-1.25-1.25h-5a1.25,1.25,0,0,0-1.24,1.25v37.5a1.25,1.25,0,0,0,1.24,1.25h5a1.25,1.25,0,0,0,1.25-1.25V140.69a11.61,11.61,0,0,0,8.83,4c7.4,0,13.64-6.6,13.64-14.75S322,115.22,314.62,115.22Zm-1.36,22.5a7.76,7.76,0,1,1,7.45-7.75A7.61,7.61,0,0,1,313.26,137.72ZM279,115.22A14.75,14.75,0,1,0,293.79,130,14.75,14.75,0,0,0,279,115.22Zm0,22.5a7.76,7.76,0,1,1,7.45-7.75A7.61,7.61,0,0,1,279,137.72Zm130.42-.91a1.26,1.26,0,0,0-1.67-.67c-2.71,1.21-4.37,1.25-5.06.83s-1.15-2.18-1.14-2.95v-.29h0V122.35h8a1.25,1.25,0,0,0,1.25-1.25v-3.75a1.25,1.25,0,0,0-1.25-1.25h-8v-7.62a1.25,1.25,0,0,0-1.25-1.25h-5a1.25,1.25,0,0,0-1.25,1.25v7.62h-3.73a1.25,1.25,0,0,0-1.25,1.25v3.75a1.25,1.25,0,0,0,1.25,1.25h3.73v11.36h0v.23c0,3,1.17,7.23,4.7,9.41a9.42,9.42,0,0,0,5,1.37,17.37,17.37,0,0,0,6.87-1.66,1.25,1.25,0,0,0,.65-1.61ZM442,116.1h-5.26a1.25,1.25,0,0,0-1.19.86l-6.24,19.2L423.08,117a1.23,1.23,0,0,0-1.19-.86h-5.25a1.25,1.25,0,0,0-1.19,1.63l6.07,18.69,2.1,6.51a1.25,1.25,0,0,0,1.19.87h2l-1.19,3.67c-.32.78-.93,1.78-1.67,2s-2.37-.23-4.68-2.1a1.25,1.25,0,0,0-1.78.22l-3,4a1.24,1.24,0,0,0,.21,1.72,17.32,17.32,0,0,0,6.21,3.37,9.44,9.44,0,0,0,5.22,0c3.89-1.17,6.14-4.85,6.91-7.73l10.14-31.19A1.25,1.25,0,0,0,442,116.1Zm-95.64-.86a14.75,14.75,0,0,0,.7,29.48c4.82,0,9.42-1.91,12.11-5.48a1.25,1.25,0,0,0-.3-1.77l-3.45-2.41a1.24,1.24,0,0,0-1.72.29c-1.36,1.84-4.23,2.82-6.64,2.82-3.46,0-6.94-3.41-6.94-6.21h19.92a1.26,1.26,0,0,0,1.25-1.19c0-.26,0-.53,0-.8C361.32,121,354.84,114.85,346.37,115.24ZM340.49,127c0-2.84,3.49-5.74,6.58-5.74s6.57,2.9,6.57,5.74ZM250.82,142.6V117.35a1.25,1.25,0,0,0-1.25-1.25h-5a1.25,1.25,0,0,0-1.25,1.25V142.6a1.25,1.25,0,0,0,1.25,1.25h5A1.25,1.25,0,0,0,250.82,142.6Zm12-21.84a4.66,4.66,0,1,0-4.66,4.66A4.65,4.65,0,0,0,262.83,120.76Zm109.24-4.66h-5a1.25,1.25,0,0,0-1.25,1.25V142.6a1.25,1.25,0,0,0,1.25,1.25h5a1.25,1.25,0,0,0,1.25-1.25V117.35A1.25,1.25,0,0,0,372.07,116.1Zm8.61,0a4.66,4.66,0,1,0,4.66,4.66A4.65,4.65,0,0,0,380.68,116.1Z"/></svg>